<svg xmlns="http://www.w3.org/2000/svg" xmlns:xlink="http://www.w3.org/1999/xlink" width="1000" zoomAndPan="magnify" viewBox="0 0 750 749.999995" height="1000" preserveAspectRatio="xMidYMid meet" version="1.0"><defs><clipPath id="1edab25d43"><path d="M 8.210938 8.210938 L 741.710938 8.210938 L 741.710938 741.710938 L 8.210938 741.710938 Z M 8.210938 8.210938 " clip-rule="nonzero"/></clipPath></defs><g clip-path="url(#1edab25d43)"><path fill="#ff0000" d="M 375.351562 741.738281 C 577.996094 741.738281 742.269531 577.464844 742.269531 374.824219 C 742.269531 172.179688 577.996094 7.90625 375.351562 7.90625 C 172.710938 7.90625 8.4375 172.179688 8.4375 374.824219 C 8.4375 577.464844 172.710938 741.738281 375.351562 741.738281 Z M 375.351562 741.738281 " fill-opacity="1" fill-rule="nonzero"/><path stroke-linecap="butt" transform="matrix(8.269447, 0, 0, 8.269447, 8.211681, 4.903919)" fill="none" stroke-linejoin="miter" d="M 70.814517 47.682391 C 72.430027 33.002979 61.839461 19.793586 47.160049 18.178076 C 32.480637 16.562566 19.270772 27.153132 17.655734 41.832544 C 16.040224 56.511956 26.63079 69.721821 41.310202 71.337331 C 55.989614 72.952369 69.199007 62.362276 70.814517 47.682391 Z M 70.814517 47.682391 " stroke="#ffffff" stroke-width="4.69" stroke-opacity="1" stroke-miterlimit="10"/></g><path fill="#ffffff" d="M 479.40625 374.382812 L 305.167969 474.9375 L 305.167969 273.742188 Z M 479.40625 374.382812 " fill-opacity="1" fill-rule="nonzero"/></svg>